<svg xmlns="http://www.w3.org/2000/svg" width="24.956" height="27.717" viewBox="0 0 24.956 27.717">
  <g id="Group_69231" data-name="Group 69231" transform="translate(0.05 0.05)">
    <path id="Calendar" d="M21.576,3.015V4.444c4.155.4,6.28,2.7,6.28,6.828v11.42c0,4.592-2.618,6.925-7.769,6.925H10.769C5.618,29.617,3,27.284,3,22.692V11.272c0-2.748.937-4.715,2.858-5.863a.947.947,0,0,1,1.011-.037.985.985,0,0,1-.1,1.747C5.5,7.876,4.9,9.2,4.9,11.272v.366H22.416a.965.965,0,0,1,0,1.93H4.9v9.124c0,3.505,1.705,4.959,5.872,4.983h9.318c4.107,0,5.86-1.49,5.86-5V11.26c0-3.054-1.333-4.531-4.371-4.886V7.3a.959.959,0,0,1-1.909-.073V2.93a.972.972,0,0,1,.307-.676A.939.939,0,0,1,20.663,2,.983.983,0,0,1,21.576,3.015ZM10.883,7.928a.94.94,0,0,1-.679.278.958.958,0,0,1-.925-.977V3.015a.959.959,0,0,1,1.909,0V4.346h5.427a.965.965,0,0,1,0,1.93H11.165v.965A.973.973,0,0,1,10.883,7.928Z" transform="translate(-3 -2)" fill="#00aeef" stroke="#00aeef" stroke-width="0.1" fill-rule="evenodd"/>
    <path id="Calendar-2" data-name="Calendar" d="M19.7,12.615a1.222,1.222,0,1,0,1.2,1.221,1.232,1.232,0,0,0-.356-.868,1.19,1.19,0,0,0-.857-.353Zm-6.964,1.221a1.2,1.2,0,1,1,1.2,1.222A1.211,1.211,0,0,1,12.734,13.837ZM8.183,12.615a1.222,1.222,0,1,0,1.2,1.221,1.232,1.232,0,0,0-.356-.868,1.19,1.19,0,0,0-.857-.353ZM18.5,18.783a1.211,1.211,0,0,1,1.2-1.221h-.012a1.191,1.191,0,0,1,.857.353,1.232,1.232,0,0,1,.356.868,1.2,1.2,0,1,1-2.4,0Zm-4.563-1.221a1.222,1.222,0,1,0,1.2,1.221A1.211,1.211,0,0,0,13.935,17.562ZM6.983,18.783a1.211,1.211,0,0,1,1.2-1.221H8.171a1.191,1.191,0,0,1,.857.353,1.232,1.232,0,0,1,.356.868,1.2,1.2,0,1,1-2.4,0Z" transform="translate(-1.483 2.043)" fill="#00aeef" stroke="#00aeef" stroke-width="0.1" fill-rule="evenodd"/>
  </g>
</svg>
