<svg xmlns="http://www.w3.org/2000/svg" width="64" height="64" viewBox="0 0 64 64">
  <g id="Group_70926" data-name="Group 70926" transform="translate(-144 -363)">
    <g id="Ellipse_1" data-name="Ellipse 1" transform="translate(144 363)" fill="#fcfcfd" stroke="#06bfd2" stroke-width="1">
      <circle cx="32" cy="32" r="32" stroke="none"/>
      <circle cx="32" cy="32" r="31.5" fill="none"/>
    </g>
    <path id="Icon_awesome-graduation-cap" data-name="Icon awesome-graduation-cap" d="M43.758,10.772,24.145,4.746a5.617,5.617,0,0,0-3.29,0L1.242,10.772a1.655,1.655,0,0,0,0,3.206l3.419,1.05a5.541,5.541,0,0,0-1.257,3.3,2.17,2.17,0,0,0-.179,3.728l-1.8,8.077a1.125,1.125,0,0,0,1.1,1.369H6.472a1.125,1.125,0,0,0,1.1-1.369l-1.8-8.077a2.164,2.164,0,0,0-.127-3.693A3.317,3.317,0,0,1,7.1,15.779L20.855,20a5.623,5.623,0,0,0,3.29,0l19.614-6.026a1.656,1.656,0,0,0,0-3.206ZM24.806,22.155a7.871,7.871,0,0,1-4.612,0L10,19.022,9,27c0,2.486,6.044,4.5,13.5,4.5S36,29.486,36,27l-1-7.978-10.2,3.133Z" transform="translate(153.5 377)" fill="#06bfd2"/>
  </g>
</svg>
