<svg id="employee" xmlns="http://www.w3.org/2000/svg" width="27.241" height="27.235" viewBox="0 0 27.241 27.235">
  <path id="Path_1" data-name="Path 1" d="M13.787,247.437a7.525,7.525,0,0,1,3.743-6.5A11.081,11.081,0,0,0,0,249.888v2.677a.8.8,0,0,0,.8.8H16.682a7.513,7.513,0,0,1-2.894-5.926Z" transform="translate(0 -226.128)" fill="#00aeef"/>
  <path id="Path_2" data-name="Path 2" d="M101.673,6.406a6.353,6.353,0,1,0-6.353,6.353,6.353,6.353,0,0,0,6.353-6.353Z" transform="translate(-84.267 -0.053)" fill="#00aeef"/>
  <path id="Path_3" data-name="Path 3" d="M300.19,292.164l-4.5,4.5a.8.8,0,0,1-1.128,0l-1.709-1.709a.8.8,0,1,1,1.128-1.128l1.145,1.145,4.049-4.049a5.922,5.922,0,1,0,1.013,1.244Z" transform="translate(-273.819 -273.934)" fill="#00aeef"/>
</svg>
