<svg id="XMLID_105_" xmlns="http://www.w3.org/2000/svg" width="26.237" height="26.23" viewBox="0 0 26.237 26.23">
  <path id="XMLID_106_" d="M14.122,110.872l-4.014,4.014h0a4.258,4.258,0,0,1-6.022-6.021h0L8.1,104.85a1.419,1.419,0,0,0-2.007-2.007l-4.014,4.014h0a7.1,7.1,0,0,0,10.037,10.035h0l4.014-4.014a1.419,1.419,0,0,0-2.007-2.007Z" transform="translate(0 -92.739)" fill="#00aeef"/>
  <path id="XMLID_107_" d="M118.97,7.129a7.1,7.1,0,0,0-12.115-5.018h0L102.84,6.126a1.419,1.419,0,1,0,2.007,2.007l4.014-4.014h0a4.258,4.258,0,0,1,6.022,6.021h0l-4.014,4.014a1.419,1.419,0,1,0,2.007,2.007l4.014-4.014h0A7.05,7.05,0,0,0,118.97,7.129Z" transform="translate(-92.733 -0.036)" fill="#00aeef"/>
  <path id="XMLID_108_" d="M81.629,91.665a1.419,1.419,0,0,0,2.007,0l8.029-8.029a1.419,1.419,0,0,0-2.007-2.007l-8.029,8.029A1.419,1.419,0,0,0,81.629,91.665Z" transform="translate(-73.529 -73.532)" fill="#00aeef"/>
</svg>
