<svg xmlns="http://www.w3.org/2000/svg" width="28.71" height="15.001" viewBox="0 0 28.71 15.001">
  <path id="Income_in_this_Perio" data-name="Income in this Perio" d="M6.668-2.154H3.763v5.78H1.156v-15H6.431a6.14,6.14,0,0,1,4.008,1.164,4.117,4.117,0,0,1,1.411,3.369,4.217,4.217,0,0,1-.726,2.519A4.621,4.621,0,0,1,9.1-2.762l3.369,6.254v.134H9.677ZM3.763-4.245H6.442A2.979,2.979,0,0,0,8.5-4.91a2.317,2.317,0,0,0,.742-1.818,2.467,2.467,0,0,0-.685-1.865,2.911,2.911,0,0,0-2.045-.68H3.763Zm14.09-7.13L22.181.123l4.317-11.5h3.369v15h-2.6V-1.319l.258-6.614L23.1,3.626H21.233L16.813-7.924l.258,6.6V3.626h-2.6v-15Z" transform="translate(-1.156 11.375)" fill="#00aeef"/>
</svg>
