<svg id="icon" xmlns="http://www.w3.org/2000/svg" width="56" height="56" viewBox="0 0 56 56">
  <rect id="icon_style_" data-name="icon (style)" width="56" height="56" rx="28" fill="#fafafa"/>
  <g id="empty-wallet-change" transform="translate(14.833 13.608)">
    <g id="empty-wallet-change-2" data-name="empty-wallet-change">
      <g id="empty-wallet-change-3" data-name="empty-wallet-change">
        <path id="Vector" d="M4.667,0A4.648,4.648,0,0,0,1.552,1.2a3.724,3.724,0,0,0-.513.537A4.62,4.62,0,0,0,0,4.667,4.671,4.671,0,0,0,7.607,8.3,4.731,4.731,0,0,0,9.053,6.218a4.261,4.261,0,0,0,.28-1.552A4.673,4.673,0,0,0,4.667,0Zm2.8,3.768a.572.572,0,0,1-1.143,0V3.652A.224.224,0,0,0,6.1,3.418H3.768a.563.563,0,0,1-.5.84.576.576,0,0,1-.4-.163l-.84-.84A.752.752,0,0,1,1.9,3.068a.683.683,0,0,1,0-.432A.667.667,0,0,1,2.03,2.45l.84-.828a.537.537,0,0,1,.793,0,.55.55,0,0,1,.093.665H6.1A1.357,1.357,0,0,1,7.455,3.652v.117Zm-1.4,4.118a.537.537,0,0,1-.408-.163.55.55,0,0,1-.093-.665H3.22A1.357,1.357,0,0,1,1.867,5.693V5.577a.572.572,0,1,1,1.143,0v.117a.224.224,0,0,0,.222.233H5.577A.567.567,0,0,1,5.67,5.25a.556.556,0,0,1,.793,0l.84.84a.752.752,0,0,1,.128.187.683.683,0,0,1,0,.432.965.965,0,0,1-.128.175l-.84.828A.541.541,0,0,1,6.067,7.887Z" transform="translate(1.167 17.5)" fill="#2269b3"/>
        <path id="Vector-2" data-name="Vector" d="M14.408,2.217V6.65h-1.75V2.217a.473.473,0,0,0-.467-.467.468.468,0,0,0-.175.035L2.765,5.273A1.567,1.567,0,0,0,1.75,6.755v.782A4.358,4.358,0,0,0,0,11.037V6.755A3.322,3.322,0,0,1,2.147,3.64L11.41.14A2.3,2.3,0,0,1,12.192,0,2.223,2.223,0,0,1,14.408,2.217Z" transform="translate(2.917 2.392)" fill="#2269b3"/>
        <path id="Vector-3" data-name="Vector" d="M3.505.583V1.75a.583.583,0,0,1-.572.583H1.23A1.208,1.208,0,0,1,.005,1.272,1.165,1.165,0,0,1,.344.338,1.109,1.109,0,0,1,1.16,0H2.922A.585.585,0,0,1,3.505.583Z" transform="translate(21.578 16.333)" fill="#2269b3"/>
        <path id="Vector-4" data-name="Vector" d="M19.81,6.067H21A1.17,1.17,0,0,0,22.167,4.9V4.387A4.4,4.4,0,0,0,17.78,0H4.387A4.324,4.324,0,0,0,1.75.887,4.358,4.358,0,0,0,0,4.387V6.463a.657.657,0,0,0,.887.583,6.333,6.333,0,0,1,2.03-.338,6.428,6.428,0,0,1,6.417,6.417A6.768,6.768,0,0,1,8.762,15.7a.649.649,0,0,0,.56.922H17.78a4.4,4.4,0,0,0,4.387-4.387v-.222A1.17,1.17,0,0,0,21,10.85H19.985A2.533,2.533,0,0,1,17.5,9.077a2.349,2.349,0,0,1,.63-2.31A2.325,2.325,0,0,1,19.81,6.067Zm-6.393-.233H7.583a.875.875,0,0,1,0-1.75h5.833a.875.875,0,0,1,0,1.75Z" transform="translate(2.917 9.042)" fill="#2269b3"/>
      </g>
    </g>
  </g>
</svg>
