<svg id="ic_Dashboard" xmlns="http://www.w3.org/2000/svg" width="19.994" height="22" viewBox="0 0 19.994 22">
  <path id="Combined_Shape" data-name="Combined Shape" d="M7.095,19.66,7.038,19.4A8.946,8.946,0,0,1,4.15,17.743l-.257.084A2.984,2.984,0,0,1,.4,16.5a2.941,2.941,0,0,1,.59-3.666l.2-.18a8.769,8.769,0,0,1,0-3.307l-.2-.181A2.944,2.944,0,0,1,.4,5.5,2.98,2.98,0,0,1,3.893,4.173l.258.084A9.061,9.061,0,0,1,7.038,2.6l.057-.264a2.974,2.974,0,0,1,5.811,0l.056.265A8.932,8.932,0,0,1,15.85,4.257l.257-.084A2.98,2.98,0,0,1,19.6,5.5a2.945,2.945,0,0,1-.589,3.667l-.2.179a8.792,8.792,0,0,1,0,3.307l.2.181A2.941,2.941,0,0,1,19.6,16.5a2.984,2.984,0,0,1-3.495,1.327l-.258-.084A9.081,9.081,0,0,1,12.962,19.4l-.056.264a2.974,2.974,0,0,1-5.811,0ZM5.108,15.9a6.968,6.968,0,0,0,3.06,1.751,1,1,0,0,1,.72.759l.178.84a.956.956,0,0,0,1.867,0l.177-.838a1,1,0,0,1,.72-.758,7.065,7.065,0,0,0,1.644-.682A6.982,6.982,0,0,0,14.892,15.9a1,1,0,0,1,.709-.289,1.031,1.031,0,0,1,.313.05l.819.266a.947.947,0,0,0,.933-1.6l-.643-.572a.99.99,0,0,1-.3-1,6.85,6.85,0,0,0,0-3.5.99.99,0,0,1,.3-1l.642-.571A.945.945,0,0,0,17.856,6.5a.959.959,0,0,0-1.122-.426l-.819.266a1.015,1.015,0,0,1-1.023-.24,6.973,6.973,0,0,0-3.06-1.751,1,1,0,0,1-.72-.759l-.178-.839a.955.955,0,0,0-1.867,0l-.177.837a1,1,0,0,1-.72.759A7.027,7.027,0,0,0,5.108,6.1a1.014,1.014,0,0,1-1.022.239l-.82-.266a.947.947,0,0,0-.933,1.6l.643.573a.991.991,0,0,1,.3,1,6.83,6.83,0,0,0,0,3.5.993.993,0,0,1-.3,1l-.642.571A.944.944,0,0,0,2.144,15.5a.958.958,0,0,0,.826.473.947.947,0,0,0,.3-.047l.82-.266a1.021,1.021,0,0,1,.312-.05A1.008,1.008,0,0,1,5.108,15.9ZM6.34,11A3.66,3.66,0,1,1,10,14.631,3.65,3.65,0,0,1,6.34,11Zm2.016,0A1.644,1.644,0,1,0,10,9.368,1.64,1.64,0,0,0,8.356,11Z" transform="translate(-0.003)" fill="#92929d"/>
</svg>
