<svg id="icon" xmlns="http://www.w3.org/2000/svg" width="56" height="56" viewBox="0 0 56 56">
  <rect id="icon_style_" data-name="icon (style)" width="56" height="56" rx="28" fill="#fff"/>
  <g id="money-send" transform="translate(14 14)">
    <g id="money-send-2" data-name="money-send">
      <g id="money-send-3" data-name="money-send">
        <path id="Vector" d="M0,.91c0,.63.175.723.572.863l.6.21V0H.817A.873.873,0,0,0,0,.91Z" transform="translate(11.958 10.792)" fill="#2269b3"/>
        <path id="Vector-2" data-name="Vector" d="M0,1.983H.35a.865.865,0,0,0,.817-.91C1.167.443.992.35.595.21L0,0Z" transform="translate(14.875 15.225)" fill="#2269b3"/>
        <path id="Vector-3" data-name="Vector" d="M20.51,4.06,18.118,6.452a.873.873,0,0,1-1.237,0,.88.88,0,0,1,0-1.237l2.392-2.392A11.671,11.671,0,1,0,20.51,4.06Zm-6.8,7.4a2.392,2.392,0,0,1,1.75,2.52,2.625,2.625,0,0,1-2.567,2.66h-.35v.292a.875.875,0,0,1-1.75,0v-.292H10.7A2.877,2.877,0,0,1,7.875,13.72a.875.875,0,1,1,1.75-.012A1.123,1.123,0,0,0,10.7,14.875h.093v-2.59l-1.167-.408a2.392,2.392,0,0,1-1.75-2.52A2.625,2.625,0,0,1,10.442,6.7h.35v-.28a.875.875,0,0,1,1.75,0v.292h.093a2.877,2.877,0,0,1,2.823,2.917.875.875,0,0,1-1.75,0,1.123,1.123,0,0,0-1.073-1.167h-.093v2.59Z" transform="translate(2.333 2.333)" fill="#2269b3"/>
        <path id="Vector-4" data-name="Vector" d="M6.347.537A.913.913,0,0,0,5.868.058,1.012,1.012,0,0,0,5.542,0H.875A.881.881,0,0,0,0,.875a.881.881,0,0,0,.875.875H3.43L1.482,3.7A12.375,12.375,0,0,1,2.718,4.935L4.667,2.987V5.542a.875.875,0,0,0,1.75,0V.875A.879.879,0,0,0,6.347.537Z" transform="translate(20.125 1.458)" fill="#2269b3"/>
      </g>
    </g>
  </g>
</svg>
