<svg id="icon" xmlns="http://www.w3.org/2000/svg" width="56" height="56" viewBox="0 0 56 56">
  <rect id="icon_style_" data-name="icon (style)" width="56" height="56" rx="28" fill="#fafafa"/>
  <g id="open-book" transform="translate(16 -16.048)">
    <g id="Group_70859" data-name="Group 70859" transform="translate(0 35.048)">
      <g id="Group_70858" data-name="Group 70858" transform="translate(0 0)">
        <path id="Path_332" data-name="Path 332" d="M35.687,35.049h0a.843.843,0,0,0-.6.248.852.852,0,0,0-.252.607V48.738a.859.859,0,0,0,.857.856c1.992,0,5.33.42,7.632,2.829V38.993a.82.82,0,0,0-.118-.433C41.315,35.516,37.683,35.054,35.687,35.049Z" transform="translate(-32.028 -35.049)" fill="#2269b3"/>
        <path id="Path_333" data-name="Path 333" d="M165.24,48.737V35.9a.854.854,0,0,0-.851-.856h0c-2,0-5.628.467-7.518,3.51a.82.82,0,0,0-.118.433v13.43c2.3-2.409,5.64-2.825,7.632-2.829A.859.859,0,0,0,165.24,48.737Z" transform="translate(-144.128 -35.048)" fill="#2269b3"/>
        <path id="Path_334" data-name="Path 334" d="M180.734,71.8h-.621v10.73a2.19,2.19,0,0,1-2.182,2.184,9.493,9.493,0,0,0-6.449,2.2,20.6,20.6,0,0,1,9.06.175.856.856,0,0,0,1.047-.834v-13.6A.857.857,0,0,0,180.734,71.8Z" transform="translate(-157.673 -68.841)" fill="#2269b3"/>
        <path id="Path_335" data-name="Path 335" d="M1.476,82.531V71.8H.856A.857.857,0,0,0,0,72.657v13.6a.856.856,0,0,0,1.047.834,20.6,20.6,0,0,1,9.06-.175,9.492,9.492,0,0,0-6.449-2.2A2.19,2.19,0,0,1,1.476,82.531Z" transform="translate(0 -68.841)" fill="#2269b3"/>
      </g>
    </g>
  </g>
</svg>
