<svg xmlns="http://www.w3.org/2000/svg" width="22.754" height="22.701" viewBox="0 0 22.754 22.701">
  <g id="logout_1_" data-name="logout (1)" transform="translate(0.15 0.142)">
    <path id="Path_319" data-name="Path 319" d="M286.9,209.408h-8.867a.7.7,0,1,1,0-1.4H286.9a.7.7,0,0,1,0,1.4Zm0,0" transform="translate(-265.198 -198.899)" fill="#92929d" stroke="#92929d" stroke-width="0.3"/>
    <path id="Path_320" data-name="Path 320" d="M400.7,136.372a.7.7,0,0,1-.495-1.2l3.006-3.005-3.006-3.006a.7.7,0,1,1,.99-.99l3.5,3.5a.7.7,0,0,1,0,.99l-3.5,3.5A.7.7,0,0,1,400.7,136.372Zm0,0" transform="translate(-382.503 -122.363)" fill="#92929d" stroke="#92929d" stroke-width="0.3"/>
    <path id="Path_321" data-name="Path 321" d="M7.467,22.409a1.924,1.924,0,0,1-.579-.087L1.271,20.451A1.884,1.884,0,0,1,0,18.676V1.875A1.869,1.869,0,0,1,1.867.008a1.925,1.925,0,0,1,.579.087L8.062,1.966A1.884,1.884,0,0,1,9.334,3.742v16.8a1.869,1.869,0,0,1-1.867,1.867Zm-5.6-21a.468.468,0,0,0-.467.467v16.8a.485.485,0,0,0,.324.45l5.591,1.863a.507.507,0,0,0,.152.021.468.468,0,0,0,.467-.467V3.742a.485.485,0,0,0-.324-.45L2.019,1.429a.507.507,0,0,0-.152-.021Zm0,0" transform="translate(0 0)" fill="#92929d" stroke="#92929d" stroke-width="0.3"/>
    <path id="Path_322" data-name="Path 322" d="M39.735,7.475a.7.7,0,0,1-.7-.7v-4.2a1.168,1.168,0,0,0-1.167-1.167h-10.5a.7.7,0,1,1,0-1.4h10.5a2.569,2.569,0,0,1,2.567,2.567v4.2A.7.7,0,0,1,39.735,7.475Zm0,0" transform="translate(-25.501)" fill="#92929d" stroke="#92929d" stroke-width="0.3"/>
    <path id="Path_323" data-name="Path 323" d="M185.766,284.807h-3.734a.7.7,0,0,1,0-1.4h3.734a1.168,1.168,0,0,0,1.167-1.167v-4.2a.7.7,0,1,1,1.4,0v4.2A2.569,2.569,0,0,1,185.766,284.807Zm0,0" transform="translate(-173.399 -265.198)" fill="#92929d" stroke="#92929d" stroke-width="0.3"/>
  </g>
</svg>
