<svg id="money" xmlns="http://www.w3.org/2000/svg" width="19.994" height="19.994" viewBox="0 0 19.994 19.994">
  <path id="Path_341" data-name="Path 341" d="M188.443,182a6.443,6.443,0,1,0,6.443,6.443A6.451,6.451,0,0,0,188.443,182Zm0,5.858a1.753,1.753,0,0,1,.586,3.407v1.279h-1.172v-1.279a1.754,1.754,0,0,1-1.172-1.649h1.172a.586.586,0,1,0,.586-.586,1.753,1.753,0,0,1-.586-3.407v-1.279h1.172v1.279a1.754,1.754,0,0,1,1.171,1.649h-1.171a.586.586,0,1,0-.586.586Z" transform="translate(-174.893 -174.893)" fill="currentColor"/>
  <path id="Path_342" data-name="Path 342" d="M6.521,7.107c3.613,0,6.443-1.544,6.443-3.515S10.134,0,6.521,0,0,1.622,0,3.593,2.908,7.107,6.521,7.107Z" fill="currentColor"/>
  <path id="Path_343" data-name="Path 343" d="M0,337.559v.954c0,1.971,2.908,3.514,6.521,3.514.2,0,.4-.019.605-.029a7.565,7.565,0,0,1-.982-2.328A9.336,9.336,0,0,1,0,337.559Z" transform="translate(0 -324.377)" fill="currentColor"/>
  <path id="Path_344" data-name="Path 344" d="M5.964,252c-.013-.184-.028-.368-.028-.556a7.582,7.582,0,0,1,.216-1.771A9.339,9.339,0,0,1,0,247.559v.954C0,250.38,2.627,251.846,5.964,252Z" transform="translate(0 -237.892)" fill="currentColor"/>
  <path id="Path_345" data-name="Path 345" d="M6.521,162.028h0a7.641,7.641,0,0,1,1.645-2.453,13.071,13.071,0,0,1-1.647.11A9.528,9.528,0,0,1,0,157.559v.954C0,160.484,2.908,162.028,6.521,162.028Z" transform="translate(0 -151.406)" fill="currentColor"/>
</svg>
