<svg xmlns="http://www.w3.org/2000/svg" width="19.994" height="19.995" viewBox="0 0 19.994 19.995">
  <g id="layer6" transform="translate(-1.327 -1.325)">
    <path id="path2673" d="M10.12,1.325,9.711,2.768a.37.37,0,0,1-.273.26,8.517,8.517,0,0,0-2.613,1.08.371.371,0,0,1-.378.009L5.14,3.388,3.39,5.138l.728,1.307a.371.371,0,0,1-.009.378A8.517,8.517,0,0,0,3.03,9.435a.37.37,0,0,1-.26.273l-1.443.41v2.405l1.443.41a.37.37,0,0,1,.26.273,8.517,8.517,0,0,0,1.08,2.613.371.371,0,0,1,.009.378L3.39,17.506l1.749,1.751,1.307-.728a.371.371,0,0,1,.378.009,8.517,8.517,0,0,0,2.613,1.08.37.37,0,0,1,.273.26l.41,1.443h2.405l.41-1.443a.37.37,0,0,1,.273-.26,8.517,8.517,0,0,0,2.613-1.08.371.371,0,0,1,.378-.009l1.307.728,1.751-1.752L18.53,16.2a.371.371,0,0,1,.009-.378,8.517,8.517,0,0,0,1.08-2.613.37.37,0,0,1,.26-.273l1.443-.41V10.119l-1.443-.41a.37.37,0,0,1-.26-.273,8.517,8.517,0,0,0-1.08-2.613.371.371,0,0,1-.009-.378l.728-1.307L17.506,3.388,16.2,4.116a.371.371,0,0,1-.378-.009,8.517,8.517,0,0,0-2.613-1.08.37.37,0,0,1-.273-.26l-.41-1.443Zm1.2,2.593a7.4,7.4,0,1,1-7.4,7.4A7.41,7.41,0,0,1,11.324,3.918Zm0,.741a6.664,6.664,0,1,0,6.665,6.664A6.657,6.657,0,0,0,11.324,4.658Zm0,2.221a4.443,4.443,0,1,1-4.445,4.441A4.448,4.448,0,0,1,11.324,6.879Zm0,.741a3.7,3.7,0,1,0,3.7,3.7A3.7,3.7,0,0,0,11.324,7.62Zm-.006,1.1a.371.371,0,0,1,.375.375v.372a1.266,1.266,0,0,1,.536.131,1.034,1.034,0,0,1,.576.979.37.37,0,1,1-.741,0,.3.3,0,0,0-.167-.317.56.56,0,0,0-.2-.052h-.741a.554.554,0,0,0-.2.052.385.385,0,0,0,0,.634.584.584,0,0,0,.2.054h.741a1.273,1.273,0,0,1,.536.132,1.119,1.119,0,0,1,0,1.957,1.3,1.3,0,0,1-.536.134v.369a.37.37,0,1,1-.741,0v-.369a1.04,1.04,0,0,1-.979-.576,1.273,1.273,0,0,1-.132-.536.371.371,0,0,1,.741,0,.589.589,0,0,0,.054.2.305.305,0,0,0,.315.167h.741a.6.6,0,0,0,.2-.055.385.385,0,0,0,0-.634.559.559,0,0,0-.2-.052h-.741a1.3,1.3,0,0,1-.536-.134,1.121,1.121,0,0,1,0-1.957,1.266,1.266,0,0,1,.536-.131V9.1a.37.37,0,0,1,.366-.375Z" fill="currentColor"/>
  </g>
</svg>
